<?xml version="1.0" encoding="UTF-8" standalone="no"?>
<!-- Created with Inkscape (http://www.inkscape.org/) -->

<svg
   xmlns:dc="http://purl.org/dc/elements/1.1/"
   xmlns:cc="http://creativecommons.org/ns#"
   xmlns:rdf="http://www.w3.org/1999/02/22-rdf-syntax-ns#"
   xmlns:svg="http://www.w3.org/2000/svg"
   xmlns="http://www.w3.org/2000/svg"
   xmlns:sodipodi="http://sodipodi.sourceforge.net/DTD/sodipodi-0.dtd"
   xmlns:inkscape="http://www.inkscape.org/namespaces/inkscape"
   width="210mm"
   height="297mm"
   viewBox="0 0 210 297"
   version="1.1"
   id="svg3761"
   inkscape:version="0.92.2 (5c3e80d, 2017-08-06)"
   sodipodi:docname="logo.svg"
   inkscape:export-filename="C:\Users\pe5er\OneDrive\Desktop\EMFHams Branding\png\logo.png"
   inkscape:export-xdpi="149.99399"
   inkscape:export-ydpi="149.99399">
  <defs
     id="defs3755" />
  <sodipodi:namedview
     id="base"
     pagecolor="#ffffff"
     bordercolor="#666666"
     borderopacity="1.0"
     inkscape:pageopacity="0.0"
     inkscape:pageshadow="2"
     inkscape:zoom="0.7"
     inkscape:cx="273.25548"
     inkscape:cy="535.16767"
     inkscape:document-units="mm"
     inkscape:current-layer="g3896"
     showgrid="false"
     inkscape:window-width="1920"
     inkscape:window-height="1017"
     inkscape:window-x="1072"
     inkscape:window-y="399"
     inkscape:window-maximized="1" />
  <metadata
     id="metadata3758">
    <rdf:RDF>
      <cc:Work
         rdf:about="">
        <dc:format>image/svg+xml</dc:format>
        <dc:type
           rdf:resource="http://purl.org/dc/dcmitype/StillImage" />
        <dc:title></dc:title>
      </cc:Work>
    </rdf:RDF>
  </metadata>
  <g
     inkscape:groupmode="layer"
     id="layer5"
     inkscape:label="Waves">
    <path
       style="fill:none;stroke:#404040;stroke-width:6.90661669;stroke-linecap:round;stroke-miterlimit:4;stroke-dasharray:none;stroke-opacity:1"
       id="path4708"
       sodipodi:type="arc"
       sodipodi:cx="92.033638"
       sodipodi:cy="108.13718"
       sodipodi:rx="45.761879"
       sodipodi:ry="52.615685"
       sodipodi:start="1.9198622"
       sodipodi:end="4.3633231"
       d="M 76.382153,157.57975 A 45.761879,52.615685 0 0 1 46.271759,108.13718 45.761879,52.615685 0 0 1 76.382152,58.694607"
       sodipodi:open="true" />
    <path
       style="fill:none;stroke:#404040;stroke-width:6.92486906;stroke-linecap:round;stroke-miterlimit:4;stroke-dasharray:none;stroke-opacity:1"
       id="path4708-6"
       sodipodi:type="arc"
       sodipodi:cx="86.599907"
       sodipodi:cy="108.13718"
       sodipodi:rx="55.319019"
       sodipodi:ry="68.030083"
       sodipodi:start="1.9198622"
       sodipodi:end="4.3633231"
       d="M 67.679687,172.06454 A 55.319019,68.030083 0 0 1 31.280888,108.13718 55.319019,68.030083 0 0 1 67.679686,44.209811"
       sodipodi:open="true" />
    <path
       style="fill:none;stroke:#404040;stroke-width:6.90661669;stroke-linecap:round;stroke-miterlimit:4;stroke-dasharray:none;stroke-opacity:1"
       id="path4708-8"
       sodipodi:type="arc"
       sodipodi:cx="-111.26778"
       sodipodi:cy="108.13718"
       sodipodi:rx="45.761879"
       sodipodi:ry="52.615685"
       sodipodi:start="1.9198622"
       sodipodi:end="4.3633231"
       d="m -126.91926,157.57975 a 45.761879,52.615685 0 0 1 -30.1104,-49.44257 45.761879,52.615685 0 0 1 30.1104,-49.442573"
       sodipodi:open="true"
       transform="scale(-1,1)" />
    <path
       style="fill:none;stroke:#404040;stroke-width:6.92486906;stroke-linecap:round;stroke-miterlimit:4;stroke-dasharray:none;stroke-opacity:1"
       id="path4708-6-2"
       sodipodi:type="arc"
       sodipodi:cx="-116.70158"
       sodipodi:cy="108.13718"
       sodipodi:rx="55.319019"
       sodipodi:ry="68.030083"
       sodipodi:start="1.9198622"
       sodipodi:end="4.3633231"
       d="m -135.6218,172.06454 a 55.319019,68.030083 0 0 1 -36.3988,-63.92736 55.319019,68.030083 0 0 1 36.3988,-63.927369"
       sodipodi:open="true"
       transform="scale(-1,1)" />
  </g>
  <g
     inkscape:groupmode="layer"
     id="layer4"
     inkscape:label="Edge" />
  <g
     inkscape:groupmode="layer"
     id="layer3"
     inkscape:label="Background" />
  <g
     inkscape:label="Layer 1"
     inkscape:groupmode="layer"
     id="layer1">
    <g
       id="g3896"
       transform="translate(-4.1017711,5.1649938)">
      <circle
         r="37.885452"
         cy="102.86742"
         cx="104.80567"
         id="path3880"
         style="fill:#404040;stroke-width:0.27325818" />
      <path
         id="path3801"
         d="m 101.23693,133.86989 c -7.777919,-1.41052 -13.035902,-4.104 -18.141802,-9.29339 -4.20304,-4.27178 -7.06583,-9.6662 -8.48533,-15.98911 -0.53964,-2.40371 -0.61531,-8.669075 -0.1321,-10.937255 1.9854,-9.31936 6.66116,-16.25719 14.24882,-21.1422 7.484163,-4.818389 16.926112,-6.034639 25.475002,-3.281519 8.72881,2.811069 16.45161,10.371469 19.57265,19.161059 1.25865,3.54468 1.68073,6.12837 1.68095,10.289755 2.6e-4,5.41196 -0.9259,9.51451 -3.14104,13.91332 -4.30073,8.54037 -12.1405,14.75672 -21.19955,16.80963 -1.74121,0.39458 -8.51551,0.71672 -9.8776,0.46971 z"
         style="fill:#6699ff;stroke-width:0.26458332"
         inkscape:connector-curvature="0" />
      <path
         id="path3725"
         d="m 92.712446,108.78655 c 3.74978,-4.02442 5.11964,-4.15704 10.834654,-1.04892 3.89172,2.11652 6.58983,3.11126 8.43894,3.11126 1.40376,0 3.81743,-0.62421 5.26131,-1.36064 1.48838,-0.75914 4.29256,-3.62661 5.78484,-5.9154 1.08697,-1.66715 2.34303,-3.911065 2.34303,-4.185745 0,-0.0582 -1.49298,-1.09473 -3.31773,-2.30347 l -3.31773,-2.1977 -0.44033,0.63929 c -1.02335,1.48573 -3.37571,3.68611 -4.51142,4.21996 -0.95401,0.448445 -1.57909,0.552325 -2.84029,0.472015 -1.3711,-0.0873 -2.25453,-0.415905 -5.80793,-2.160295 -4.96727,-2.43846 -6.669081,-2.94002 -9.302174,-2.74152 -4.231903,0.31903 -7.956832,3.52909 -10.965543,9.449845 -0.68069,1.33952 -0.77209,1.69927 -0.47635,1.87489 0.20127,0.11953 1.675641,1.10291 3.276371,2.18529 1.60073,1.08238 2.9573,1.98046 3.01459,1.99573 0.0573,0.0153 0.96889,-0.9003 2.025762,-2.03459 z"
         style="fill:#404040;stroke-width:0.26458332"
         inkscape:connector-curvature="0" />
      <text
         xml:space="preserve"
         style="font-style:normal;font-weight:normal;font-size:10.58333302px;line-height:1.25;font-family:sans-serif;letter-spacing:0px;word-spacing:0px;fill:#404040;fill-opacity:1;stroke:none;stroke-width:0.26458332"
         x="28.62175"
         y="206.79056"
         id="text4775"><tspan
           sodipodi:role="line"
           id="tspan4773"
           x="28.62175"
           y="206.79056"
           style="font-style:normal;font-variant:normal;font-weight:normal;font-stretch:normal;font-size:33.51388931px;font-family:'Berlin Sans FB';-inkscape-font-specification:'Berlin Sans FB';fill:#404040;stroke-width:0.26458332">EMF HAMS</tspan></text>
    </g>
  </g>
</svg>
